<svg width="100" height="100" viewBox="0 0 1080 1080" fill="none" xmlns="http://www.w3.org/2000/svg">
    <ellipse cx="540" cy="539.5" rx="540" ry="536.5" fill="#F57281"/>
    <path d="M492.184 308.391C492.184 298.234 483.95 290 473.793 290H158.391C148.234 290 140 298.234 140 308.391V371.035C140 381.192 148.234 389.426 158.391 389.426H473.793C483.95 389.426 492.184 381.192 492.184 371.035V308.391Z" fill="white"/>
    <path d="M304.022 304.853C295.226 299.775 283.978 302.788 278.9 311.585L149.195 536.239C144.117 545.035 147.131 556.283 155.927 561.361L210.179 592.683C218.975 597.762 230.222 594.748 235.301 585.952L365.005 361.298C370.084 352.501 367.07 341.254 358.274 336.175L304.022 304.853Z" fill="white"/>
    <path d="M327.573 305.185C336.369 300.106 347.617 303.12 352.696 311.916L482.4 536.571C487.478 545.367 484.464 556.614 475.668 561.693L421.417 593.015C412.62 598.094 401.373 595.08 396.294 586.284L266.59 361.629C261.512 352.833 264.525 341.586 273.322 336.507L327.573 305.185Z" fill="white"/>
    <path d="M940 308.391C940 298.234 931.766 290 921.609 290H606.207C596.05 290 587.816 298.234 587.816 308.391V371.035C587.816 381.192 596.05 389.426 606.207 389.426H921.609C931.766 389.426 940 381.192 940 371.035V308.391Z" fill="white"/>
    <path d="M751.838 304.853C743.042 299.775 731.794 302.788 726.716 311.585L597.011 536.239C591.933 545.035 594.947 556.283 603.743 561.361L657.995 592.683C666.791 597.762 678.039 594.748 683.117 585.952L812.821 361.298C817.9 352.501 814.886 341.254 806.09 336.175L751.838 304.853Z" fill="white"/>
    <path d="M775.389 305.185C784.185 300.106 795.433 303.12 800.512 311.916L930.216 536.571C935.294 545.367 932.281 556.614 923.484 561.693L869.233 593.015C860.436 598.094 849.189 595.08 844.11 586.284L714.406 361.629C709.328 352.833 712.341 341.586 721.138 336.507L775.389 305.185Z" fill="white"/>
    <path d="M387.645 662.545C394.827 655.362 406.472 655.362 413.654 662.545L597.083 845.974C604.265 853.156 604.265 864.8 597.083 871.982L552.787 916.279C545.605 923.461 533.961 923.461 526.779 916.279L343.349 732.849C336.167 725.667 336.167 714.023 343.349 706.841L387.645 662.545Z" fill="white"/>
    <path d="M692.557 662.545C685.375 655.362 673.731 655.362 666.549 662.545L483.119 845.974C475.937 853.156 475.937 864.8 483.119 871.982L527.416 916.279C534.598 923.461 546.242 923.461 553.424 916.279L736.853 732.849C744.036 725.667 744.036 714.023 736.853 706.841L692.557 662.545Z" fill="white"/>
</svg>