<svg width="100" height="100" viewBox="0 0 1080 1080" fill="none" xmlns="http://www.w3.org/2000/svg">
    <path d="M488 212C488 200.954 479.046 192 468 192H125C113.954 192 105 200.954 105 212V280.126C105 291.172 113.954 300.126 125 300.126H468C479.046 300.126 488 291.172 488 280.126V212Z" fill="#F57281"/>
    <path d="M283.374 208.153C273.808 202.63 261.576 205.907 256.053 215.473L115 459.785C109.477 469.351 112.755 481.582 122.321 487.105L181.319 521.168C190.885 526.691 203.117 523.414 208.64 513.848L349.693 269.536C355.216 259.97 351.938 247.739 342.373 242.216L283.374 208.153Z" fill="#F57281"/>
    <path d="M308.986 208.514C318.552 202.991 330.784 206.268 336.306 215.834L477.36 460.146C482.883 469.711 479.605 481.943 470.039 487.466L411.04 521.529C401.475 527.052 389.243 523.774 383.72 514.209L242.667 269.897C237.144 260.331 240.421 248.099 249.987 242.577L308.986 208.514Z" fill="#F57281"/>
    <path d="M975 212C975 200.954 966.046 192 955 192H612C600.954 192 592 200.954 592 212V280.126C592 291.172 600.954 300.126 612 300.126H955C966.046 300.126 975 291.172 975 280.126V212Z" fill="#F57281"/>
    <path d="M770.374 208.153C760.808 202.63 748.576 205.907 743.053 215.473L602 459.785C596.477 469.351 599.755 481.582 609.321 487.105L668.319 521.168C677.885 526.691 690.117 523.414 695.64 513.848L836.693 269.536C842.216 259.97 838.938 247.739 829.373 242.216L770.374 208.153Z" fill="#F57281"/>
    <path d="M795.986 208.514C805.552 202.991 817.784 206.268 823.306 215.834L964.36 460.146C969.883 469.711 966.605 481.943 957.039 487.466L898.041 521.529C888.475 527.052 876.243 523.774 870.72 514.209L729.667 269.897C724.144 260.331 727.421 248.099 736.987 242.577L795.986 208.514Z" fill="#F57281"/>
    <path d="M374.314 597.142C382.125 589.332 394.788 589.332 402.599 597.142L602.078 796.622C609.889 804.432 609.889 817.095 602.078 824.906L553.906 873.078C546.095 880.889 533.432 880.889 525.622 873.078L326.142 673.599C318.332 665.788 318.332 653.125 326.142 645.314L374.314 597.142Z" fill="#F57281"/>
    <path d="M705.906 597.142C698.095 589.332 685.432 589.332 677.622 597.142L478.142 796.622C470.332 804.432 470.332 817.095 478.142 824.906L526.314 873.078C534.125 880.889 546.788 880.889 554.599 873.078L754.078 673.599C761.889 665.788 761.889 653.125 754.078 645.314L705.906 597.142Z" fill="#F57281"/>
</svg>
